<?xml version="1.0" encoding="UTF-8"?>
<!DOCTYPE svg PUBLIC "-//W3C//DTD SVG 1.1//EN" "http://www.w3.org/Graphics/SVG/1.1/DTD/svg11.dtd">
<!-- Creator: CorelDRAW -->
<svg xmlns="http://www.w3.org/2000/svg" xml:space="preserve" width="2048px" height="2048px" style="shape-rendering:geometricPrecision; text-rendering:geometricPrecision; image-rendering:optimizeQuality; fill-rule:evenodd; clip-rule:evenodd"
viewBox="0 0 2048 2048"
 xmlns:xlink="http://www.w3.org/1999/xlink">
 <defs>
  <style type="text/css">
   <![CDATA[
    .fil2 {fill:none}
    .fil1 {fill:#7CB342}
    .fil0 {fill:#AED581}
    .fil4 {fill:#CA2B03}
    .fil5 {fill:#DD2C00}
    .fil8 {fill:#FFFFFE}
    .fil6 {fill:#424242;fill-rule:nonzero}
    .fil7 {fill:#E6E6E5;fill-rule:nonzero}
    .fil3 {fill:#FFFFFE;fill-rule:nonzero}
   ]]>
  </style>
   <clipPath id="id0">
    <path d="M1024 -0.0011811c565.541,0 1024,458.461 1024,1024 0,565.541 -458.461,1024 -1024,1024 -565.541,0 -1024,-458.461 -1024,-1024 0,-565.541 458.461,-1024 1024,-1024z"/>
   </clipPath>
 </defs>
 <g id="Layer_x0020_1">
  <metadata id="CorelCorpID_0Corel-Layer"/>
  <path class="fil0" d="M1024 -0.0011811c565.541,0 1024,458.461 1024,1024 0,565.541 -458.461,1024 -1024,1024 -565.541,0 -1024,-458.461 -1024,-1024 0,-565.541 458.461,-1024 1024,-1024z"/>
  <g style="clip-path:url(#id0)">
   <g id="_517153792">
    <g>
     <path id="_2610733441" class="fil1" d="M2696.37 2695.91l0 0zm-1135.88 -1135.88l0 0z"/>
     <polygon id="_261073176" class="fil1" points="1542.02,502.102 2677.9,1637.98 2679.3,1639.75 2680.65,1641.55 2681.98,1643.39 2683.26,1645.26 2684.51,1647.17 2685.72,1649.1 2686.9,1651.08 2688.04,1653.08 2689.14,1655.12 2690.21,1657.2 2691.24,1659.3 2692.24,1661.45 2693.2,1663.62 2694.13,1665.83 2695.03,1668.07 2695.89,1670.34 2696.72,1672.64 2697.51,1674.98 2698.27,1677.35 2699,1679.75 2699.7,1682.19 2700.37,1684.65 2701,1687.15 2701.6,1689.68 2702.17,1692.24 2702.71,1694.84 1566.83,558.954 1566.29,556.361 1565.72,553.799 1565.12,551.269 1564.48,548.771 1563.82,546.305 1563.12,543.871 1562.39,541.469 1561.63,539.099 1560.84,536.762 1560.01,534.456 1559.15,532.184 1558.25,529.945 1557.32,527.737 1556.36,525.564 1555.36,523.422 1554.33,521.315 1553.26,519.241 1552.15,517.202 1551.01,515.195 1549.84,513.221 1548.63,511.283 1547.38,509.378 1546.09,507.507 1544.77,505.67 1543.41,503.869 "/>
     <polygon id="_261077952" class="fil1" points="1566.83,558.954 2702.71,1694.84 2703.02,1696.21 2703.25,1697.6 2703.4,1699 2703.46,1700.4 2703.44,1701.81 2703.33,1703.22 2703.14,1704.61 2702.86,1706 2702.5,1707.38 2702.05,1708.73 2701.52,1710.06 2700.9,1711.37 2700.19,1712.64 2699.4,1713.88 2698.52,1715.08 2697.55,1716.24 1561.67,580.353 1562.64,579.197 1563.52,577.998 1564.31,576.759 1565.02,575.485 1565.64,574.18 1566.17,572.848 1566.62,571.493 1566.98,570.121 1567.26,568.732 1567.45,567.334 1567.56,565.929 1567.58,564.522 1567.52,563.117 1567.37,561.717 1567.14,560.328 "/>
     <polygon id="_261077736" class="fil1" points="1561.67,580.353 2697.55,1716.24 2697.53,1716.22 1561.65,580.335 "/>
     <polygon id="_261077304" class="fil1" points="1561.65,580.335 2697.53,1716.22 2687.21,1727.8 2676.88,1739.38 2666.55,1750.95 2656.21,1762.53 2645.87,1774.1 2635.53,1785.67 2625.19,1797.24 2614.84,1808.8 2604.49,1820.36 2594.13,1831.92 2583.77,1843.48 2573.41,1855.04 2563.05,1866.59 2552.68,1878.14 2542.32,1889.69 2531.94,1901.24 2521.57,1912.78 2511.19,1924.32 2500.81,1935.86 2490.43,1947.4 2480.05,1958.94 2469.66,1970.47 2459.27,1982 2448.88,1993.53 2438.49,2005.05 2428.1,2016.57 2417.7,2028.09 2407.3,2039.61 2396.9,2051.13 2386.5,2062.64 2376.09,2074.15 2365.69,2085.66 1229.81,949.781 1240.21,938.272 1250.62,926.761 1261.02,915.246 1271.42,903.731 1281.82,892.212 1292.21,880.692 1302.61,869.169 1313,857.644 1323.39,846.115 1333.78,834.585 1344.17,823.053 1354.55,811.518 1364.93,799.981 1375.31,788.442 1385.69,776.9 1396.06,765.356 1406.43,753.81 1416.8,742.261 1427.17,730.71 1437.53,719.156 1447.89,707.6 1458.25,696.042 1468.61,684.482 1478.96,672.919 1489.31,661.354 1499.65,649.788 1509.99,638.217 1520.33,626.646 1530.67,615.071 1541,603.495 1551.33,591.916 "/>
     <polygon id="_261077472" class="fil1" points="848.717,652.874 1984.6,1788.76 1983.18,1787.34 1981.8,1785.99 1980.46,1784.69 1979.17,1783.46 1977.93,1782.28 1976.73,1781.17 1975.57,1780.12 1974.46,1779.13 838.58,643.244 839.69,644.235 840.846,645.288 842.046,646.401 843.292,647.575 844.582,648.811 845.917,650.105 847.295,651.46 "/>
     <polygon id="_261077400" class="fil1" points="851.747,655.928 1987.63,1791.81 1984.6,1788.76 848.717,652.874 "/>
     <polygon id="_261077832" class="fil1" points="838.58,643.244 1974.46,1779.13 1775.25,1600.37 639.367,464.49 "/>
     <polygon id="_261077256" class="fil1" points="886.568,622.726 2022.45,1758.61 2026.11,1762.51 2029.61,1766.42 2032.97,1770.35 2036.18,1774.28 2039.24,1778.22 2042.16,1782.17 2044.94,1786.12 2047.57,1790.08 2050.06,1794.05 2052.41,1798.02 2054.63,1802 2056.71,1805.98 2058.66,1809.96 2060.47,1813.95 2062.16,1817.94 2063.71,1821.93 2065.14,1825.92 2066.44,1829.91 2067.61,1833.9 2068.66,1837.89 2069.59,1841.88 2070.4,1845.87 2071.09,1849.85 2071.66,1853.84 2072.12,1857.81 2072.46,1861.79 2072.69,1865.75 2072.81,1869.72 2072.82,1873.67 2072.72,1877.62 2072.52,1881.56 936.637,745.68 936.842,741.739 936.94,737.789 936.93,733.834 936.811,729.871 936.581,725.904 936.237,721.93 935.78,717.954 935.207,713.972 934.517,709.987 933.708,706 932.78,702.011 931.729,698.02 930.555,694.029 929.255,690.037 927.83,686.045 926.276,682.055 924.592,678.067 922.778,674.079 920.832,670.095 918.751,666.115 916.534,662.138 914.18,658.166 911.688,654.2 909.055,650.239 906.281,646.284 903.362,642.337 900.3,638.397 897.09,634.465 893.733,630.543 890.226,626.63 "/>
     <polygon id="_261077880" class="fil1" points="936.637,745.68 2072.52,1881.56 2072.34,1885.09 2072.26,1888.93 2072.28,1893.07 2072.37,1897.5 2072.56,1902.18 2072.84,1907.11 2073.19,1912.28 2073.63,1917.66 2074.16,1923.24 2074.76,1929 2075.44,1934.93 2076.19,1941.02 2077.03,1947.24 2077.93,1953.57 2078.9,1960.01 2079.95,1966.54 2081.06,1973.13 2082.24,1979.79 2083.48,1986.47 2084.79,1993.18 2086.16,1999.9 2087.59,2006.61 2089.08,2013.29 2090.62,2019.93 2092.22,2026.5 2093.87,2033.01 2095.57,2039.42 2097.33,2045.72 2099.13,2051.9 2100.98,2057.94 2102.87,2063.83 2104.81,2069.54 968.926,933.661 966.989,927.948 965.095,922.063 963.246,916.021 961.445,909.84 959.691,903.536 957.988,897.124 956.336,890.62 954.738,884.043 953.194,877.405 951.707,870.726 950.279,864.02 948.91,857.303 947.603,850.592 946.359,843.903 945.18,837.252 944.066,830.656 943.022,824.129 942.048,817.69 941.144,811.353 940.313,805.134 939.557,799.052 938.878,793.12 938.276,787.357 937.753,781.776 937.313,776.395 936.955,771.23 936.681,766.297 936.493,761.613 936.394,757.192 936.383,753.053 936.464,749.21 "/>
     <polygon id="_261077568" class="fil1" points="1163.12,1000.25 2299,2136.13 2299.13,2137.78 2299.24,2139.38 2299.34,2140.95 2299.43,2142.47 2299.5,2143.96 2299.55,2145.42 2299.57,2146.84 2299.57,2148.23 2299.53,2149.6 2299.45,2150.93 2299.33,2152.23 2299.16,2153.51 2298.95,2154.77 2298.68,2156 2298.36,2157.21 2297.98,2158.4 1162.09,1022.52 1162.48,1021.33 1162.8,1020.12 1163.07,1018.88 1163.28,1017.63 1163.45,1016.35 1163.57,1015.04 1163.65,1013.71 1163.69,1012.35 1163.69,1010.96 1163.67,1009.54 1163.62,1008.08 1163.55,1006.59 1163.46,1005.06 1163.36,1003.5 1163.24,1001.89 "/>
     <polygon id="_261077688" class="fil1" points="1162.09,1022.52 2297.98,2158.4 2297.59,2160.29 2297.2,2162.17 2296.8,2164.06 2296.39,2165.95 2295.97,2167.84 2295.54,2169.74 2295.1,2171.63 2294.65,2173.52 2294.2,2175.42 2293.73,2177.32 2293.25,2179.22 2292.77,2181.12 2292.27,2183.02 2291.77,2184.92 2291.26,2186.82 2290.73,2188.73 2290.2,2190.63 2289.66,2192.54 2289.11,2194.45 2288.56,2196.36 2287.99,2198.27 2287.41,2200.18 2286.83,2202.09 2286.23,2204 2285.63,2205.92 2285.02,2207.83 2284.4,2209.75 2283.77,2211.66 2283.13,2213.58 2282.49,2215.49 2281.83,2217.41 2281.17,2219.33 1145.29,1083.45 1145.95,1081.53 1146.61,1079.61 1147.25,1077.69 1147.89,1075.78 1148.52,1073.86 1149.14,1071.95 1149.75,1070.03 1150.35,1068.12 1150.95,1066.21 1151.53,1064.3 1152.11,1062.39 1152.67,1060.48 1153.23,1058.57 1153.78,1056.66 1154.32,1054.75 1154.85,1052.85 1155.37,1050.94 1155.89,1049.04 1156.39,1047.14 1156.88,1045.24 1157.37,1043.33 1157.85,1041.44 1158.31,1039.54 1158.77,1037.64 1159.22,1035.75 1159.66,1033.85 1160.09,1031.96 1160.51,1030.07 1160.92,1028.18 1161.32,1026.29 1161.71,1024.4 "/>
     <polygon id="_261078312" class="fil1" points="1562.24,1447.28 2698.12,2583.16 2699.06,2584.16 2699.98,2585.16 2700.88,2586.19 2701.76,2587.22 2702.61,2588.27 2703.45,2589.33 2704.27,2590.4 2705.06,2591.49 2705.84,2592.58 2706.59,2593.69 2707.32,2594.81 2708.04,2595.94 2708.73,2597.09 2709.4,2598.24 2710.05,2599.4 1574.17,1463.52 1573.52,1462.35 1572.85,1461.2 1572.16,1460.06 1571.44,1458.93 1570.71,1457.81 1569.96,1456.7 1569.18,1455.6 1568.39,1454.52 1567.57,1453.45 1566.73,1452.39 1565.88,1451.34 1565,1450.3 1564.1,1449.28 1563.18,1448.28 "/>
     <polygon id="_261078600" class="fil1" points="1574.17,1463.52 2710.05,2599.4 2710.06,2599.41 2710.07,2599.43 2710.07,2599.45 2710.08,2599.46 2710.09,2599.48 2710.1,2599.49 2710.11,2599.51 2710.12,2599.52 1574.24,1463.64 1574.23,1463.62 1574.22,1463.61 1574.21,1463.59 1574.2,1463.58 1574.19,1463.56 1574.19,1463.55 1574.18,1463.53 "/>
     <polygon id="_261078240" class="fil1" points="1574.24,1463.64 2710.12,2599.52 2710.77,2600.74 2711.4,2601.97 2712,2603.21 2712.59,2604.46 2713.15,2605.71 2713.69,2606.98 2714.2,2608.26 2714.7,2609.54 2715.17,2610.83 2715.62,2612.13 2716.05,2613.43 2716.45,2614.74 2716.83,2616.06 2717.19,2617.39 2717.53,2618.72 2717.84,2620.05 2718.14,2621.39 2718.4,2622.74 2718.65,2624.08 2718.88,2625.44 2719.08,2626.79 2719.26,2628.15 2719.41,2629.52 2719.55,2630.88 2719.66,2632.25 2719.75,2633.62 2719.82,2634.99 2719.86,2636.37 2719.88,2637.74 2719.88,2639.11 2719.86,2640.49 2719.81,2641.86 1583.93,1505.98 1583.97,1504.61 1584,1503.23 1584,1501.86 1583.98,1500.48 1583.93,1499.11 1583.87,1497.74 1583.78,1496.37 1583.67,1495 1583.53,1493.64 1583.38,1492.27 1583.2,1490.91 1582.99,1489.56 1582.77,1488.2 1582.52,1486.85 1582.25,1485.51 1581.96,1484.17 1581.65,1482.83 1581.31,1481.5 1580.95,1480.18 1580.57,1478.86 1580.17,1477.55 1579.74,1476.24 1579.29,1474.95 1578.82,1473.66 1578.32,1472.37 1577.81,1471.1 1577.27,1469.83 1576.71,1468.57 1576.12,1467.33 1575.52,1466.09 1574.89,1464.86 "/>
     <polygon id="_261078648" class="fil1" points="1583.93,1505.98 2719.81,2641.86 2719.71,2643.67 2719.58,2645.48 2719.4,2647.28 2719.19,2649.08 2718.94,2650.88 2718.65,2652.67 2718.32,2654.46 2717.95,2656.24 2717.54,2658.01 2717.09,2659.78 2716.6,2661.53 2716.07,2663.28 2715.51,2665.02 2714.9,2666.74 2714.25,2668.46 2713.57,2670.16 2712.84,2671.85 2712.08,2673.52 2711.28,2675.18 2710.43,2676.82 2709.55,2678.45 2708.63,2680.06 2707.67,2681.65 2706.67,2683.22 2705.63,2684.77 2704.55,2686.3 2703.43,2687.81 2702.27,2689.3 2701.07,2690.77 2699.84,2692.21 2698.56,2693.62 2697.24,2695.02 1561.36,1559.13 1562.68,1557.74 1563.95,1556.32 1565.19,1554.88 1566.39,1553.42 1567.55,1551.93 1568.67,1550.42 1569.75,1548.89 1570.79,1547.34 1571.79,1545.76 1572.75,1544.17 1573.67,1542.56 1574.55,1540.94 1575.4,1539.3 1576.2,1537.64 1576.96,1535.96 1577.69,1534.28 1578.37,1532.57 1579.02,1530.86 1579.62,1529.13 1580.19,1527.4 1580.72,1525.65 1581.21,1523.89 1581.66,1522.13 1582.06,1520.36 1582.44,1518.58 1582.77,1516.79 1583.06,1515 1583.31,1513.2 1583.52,1511.4 1583.7,1509.59 1583.83,1507.79 "/>
     <polygon id="_261078480" class="fil1" points="1561.36,1559.13 2697.24,2695.02 2697.24,2695.02 2697.23,2695.03 2697.22,2695.04 2697.22,2695.05 2697.21,2695.06 2697.2,2695.06 2697.19,2695.07 2697.18,2695.08 1561.3,1559.19 1561.31,1559.19 1561.32,1559.18 1561.33,1559.17 1561.33,1559.17 1561.34,1559.16 1561.35,1559.15 1561.35,1559.14 "/>
     <polygon id="_261078096" class="fil1" points="471.296,644.911 1607.18,1780.79 1608.08,1781.76 472.198,645.876 "/>
     <polygon id="_261078120" class="fil1" points="968.963,1001 2104.84,2136.88 2074.76,2107.35 938.884,971.466 "/>
     <polygon id="_261078048" class="fil1" points="901.267,1420.83 2037.15,2556.72 2026.96,2565.28 2016.67,2573.69 2006.29,2581.92 1995.82,2589.97 1985.27,2597.84 1974.64,2605.52 1963.93,2613.01 1953.16,2620.3 1942.33,2627.37 1931.45,2634.24 1920.51,2640.88 1909.53,2647.3 1898.51,2653.49 1887.46,2659.44 1876.39,2665.15 1865.29,2670.61 1854.17,2675.81 1843.05,2680.75 1831.91,2685.42 1820.79,2689.82 1809.66,2693.94 1798.55,2697.77 1787.46,2701.31 1776.39,2704.56 1765.35,2707.49 1754.34,2710.12 1743.37,2712.44 1732.45,2714.43 1721.58,2716.09 1710.77,2717.42 1700.02,2718.41 1689.34,2719.05 1688.18,2719.1 1686.92,2719.15 1685.58,2719.2 1684.15,2719.26 1682.65,2719.31 1681.08,2719.35 1679.44,2719.4 1677.74,2719.44 1675.98,2719.47 1674.17,2719.49 1672.32,2719.51 1670.43,2719.51 1668.51,2719.51 1666.56,2719.49 1664.58,2719.46 1662.59,2719.41 1660.58,2719.34 1658.57,2719.26 1656.56,2719.16 1654.55,2719.04 1652.55,2718.9 1650.56,2718.73 1648.59,2718.55 1646.65,2718.33 1644.74,2718.09 1642.86,2717.83 1641.03,2717.53 1639.24,2717.21 1637.51,2716.85 1635.83,2716.46 1634.21,2716.04 1632.67,2715.59 496.785,1579.7 498.332,1580.16 499.948,1580.58 501.626,1580.97 503.361,1581.32 505.148,1581.65 506.983,1581.94 508.858,1582.21 510.769,1582.45 512.711,1582.66 514.679,1582.85 516.665,1583.02 518.666,1583.16 520.676,1583.28 522.69,1583.38 524.703,1583.46 526.708,1583.53 528.701,1583.57 530.677,1583.61 532.628,1583.63 534.552,1583.63 536.442,1583.63 538.293,1583.61 540.098,1583.59 541.855,1583.55 543.556,1583.52 545.195,1583.47 546.769,1583.42 548.272,1583.37 549.697,1583.32 551.041,1583.27 552.297,1583.22 553.46,1583.16 564.141,1582.52 574.891,1581.54 585.703,1580.21 596.573,1578.54 607.493,1576.55 618.459,1574.24 629.465,1571.61 640.506,1568.67 651.577,1565.43 662.67,1561.89 673.78,1558.06 684.904,1553.94 696.034,1549.54 707.164,1544.87 718.289,1539.93 729.404,1534.73 740.505,1529.27 751.582,1523.56 762.632,1517.61 773.651,1511.42 784.631,1505 795.566,1498.36 806.451,1491.49 817.282,1484.41 828.053,1477.13 838.756,1469.64 849.387,1461.96 859.941,1454.09 870.412,1446.04 880.792,1437.8 891.08,1429.4 "/>
     <polygon id="_261078192" class="fil1" points="496.785,1579.7 1632.67,2715.59 1631.35,2715.15 1630.1,2714.69 1628.92,2714.19 1627.8,2713.67 1626.76,2713.11 1625.79,2712.52 1624.9,2711.9 489.023,1576.01 489.909,1576.64 490.875,1577.23 491.919,1577.78 493.035,1578.31 494.221,1578.8 495.472,1579.27 "/>
     <polygon id="_261078264" class="fil1" points="472.198,645.876 1608.08,1781.76 1778.64,1974.95 642.754,839.07 "/>
     <polygon id="_261078336" class="fil1" points="938.884,971.466 2074.76,2107.35 2069.06,2105.3 2063.16,2103.31 2057.08,2101.35 2050.83,2099.45 2044.44,2097.59 2037.91,2095.79 2031.27,2094.04 2024.54,2092.35 2017.74,2090.71 2010.87,2089.13 2003.96,2087.62 1997.04,2086.16 1990.1,2084.77 1983.18,2083.45 1976.29,2082.19 1969.45,2081.01 1962.67,2079.89 1955.98,2078.85 1949.39,2077.89 1942.92,2077 1936.59,2076.19 1930.41,2075.46 1924.4,2074.82 1918.59,2074.25 1912.98,2073.78 1907.6,2073.39 1902.47,2073.09 1897.59,2072.89 1893,2072.77 1888.7,2072.75 1884.72,2072.83 1881.07,2073.01 745.189,937.127 748.838,936.95 752.82,936.871 757.118,936.89 761.712,937.003 766.587,937.21 771.723,937.508 777.103,937.895 782.709,938.371 788.523,938.933 794.529,939.579 800.708,940.308 807.041,941.117 813.511,942.005 820.101,942.97 826.792,944.011 833.568,945.125 840.41,946.311 847.301,947.566 854.221,948.889 861.155,950.279 868.084,951.733 874.99,953.25 881.855,954.828 888.662,956.465 895.393,958.158 902.03,959.907 908.555,961.71 914.951,963.565 921.199,965.469 927.283,967.423 933.184,969.421 "/>
     <polygon id="_261079272" class="fil1" points="642.754,839.07 1778.64,1974.95 1779.63,1976.06 1780.68,1977.22 1781.79,1978.42 1782.97,1979.66 1784.2,1980.96 1785.5,1982.29 1786.85,1983.67 1788.26,1985.09 652.384,849.207 650.97,847.785 649.615,846.407 648.321,845.073 647.085,843.783 645.911,842.538 644.797,841.336 643.745,840.18 "/>
     <polygon id="_261079392" class="fil1" points="652.384,849.207 1788.26,1985.09 1791.44,1988.24 655.562,852.355 "/>
     <polygon id="_261079440" class="fil1" points="745.189,937.127 1881.07,2073.01 1877.13,2073.21 1873.18,2073.31 1869.22,2073.3 1865.26,2073.18 1861.29,2072.95 1857.32,2072.61 1853.34,2072.15 1849.36,2071.58 1845.38,2070.89 1841.39,2070.08 1837.4,2069.15 1833.41,2068.1 1829.42,2066.93 1825.43,2065.63 1821.44,2064.2 1817.45,2062.65 1813.46,2060.97 1809.47,2059.15 1805.49,2057.2 1801.51,2055.12 1797.53,2052.91 1793.56,2050.55 1789.59,2048.06 1785.63,2045.43 1781.68,2042.65 1777.73,2039.74 1773.79,2036.67 1769.86,2033.46 1765.93,2030.11 1762.02,2026.6 1758.12,2022.94 622.236,887.058 626.139,890.716 630.052,894.223 633.975,897.581 637.907,900.79 641.847,903.853 645.794,906.771 649.749,909.545 653.71,912.179 657.676,914.671 661.648,917.025 665.625,919.241 669.605,921.322 673.589,923.27 677.575,925.084 681.564,926.767 685.555,928.32 689.546,929.746 693.538,931.045 697.529,932.219 701.52,933.27 705.51,934.2 709.496,935.007 713.481,935.698 717.462,936.271 721.439,936.728 725.412,937.071 729.38,937.301 733.342,937.42 737.298,937.43 741.247,937.332 "/>
     <polygon id="_261078864" class="fil1" points="1099.46,1183.62 2235.35,2319.5 2230.73,2327.58 2225.98,2335.63 2221.12,2343.66 2216.13,2351.67 2211.03,2359.65 2205.81,2367.6 2200.49,2375.52 2195.04,2383.41 2189.49,2391.26 2183.84,2399.08 2178.08,2406.85 2172.22,2414.58 2166.26,2422.26 2160.2,2429.9 2154.05,2437.49 2147.81,2445.03 2141.47,2452.51 2135.05,2459.93 2128.54,2467.3 2121.95,2474.61 2115.28,2481.85 2108.52,2489.03 2101.7,2496.14 2094.79,2503.18 2087.81,2510.15 2080.77,2517.04 2073.65,2523.86 2066.48,2530.6 2059.23,2537.26 2051.93,2543.83 2044.57,2550.32 2037.15,2556.72 901.267,1420.83 908.685,1414.43 916.048,1407.95 923.352,1401.37 930.595,1394.72 937.774,1387.98 944.889,1381.16 951.934,1374.27 958.911,1367.3 965.814,1360.26 972.643,1353.15 979.396,1345.97 986.069,1338.73 992.661,1331.42 999.17,1324.05 1005.59,1316.63 1011.93,1309.14 1018.17,1301.61 1024.32,1294.02 1030.38,1286.38 1036.34,1278.7 1042.2,1270.97 1047.96,1263.19 1053.61,1255.38 1059.16,1247.53 1064.6,1239.64 1069.93,1231.72 1075.15,1223.77 1080.25,1215.79 1085.24,1207.78 1090.1,1199.75 1094.84,1191.7 "/>
     <polygon id="_261079368" class="fil1" points="1561.3,1559.19 2697.18,2695.08 2697.08,2695.18 2696.98,2695.29 2696.88,2695.39 2696.78,2695.49 2696.68,2695.6 2696.58,2695.7 2696.48,2695.8 2696.37,2695.91 2693.38,2698.75 2690.27,2701.42 2687.06,2703.9 2683.76,2706.19 2680.37,2708.3 2676.91,2710.23 2673.36,2711.97 2669.76,2713.53 2666.09,2714.9 2662.38,2716.09 2658.62,2717.1 2654.82,2717.93 2651,2718.57 2647.16,2719.02 2643.3,2719.3 2639.43,2719.39 2635.57,2719.29 2631.71,2719.02 2627.87,2718.56 2624.05,2717.91 2620.26,2717.09 2616.51,2716.07 2612.8,2714.88 2609.15,2713.51 2605.55,2711.95 2602.02,2710.2 2598.57,2708.28 2595.19,2706.17 2591.91,2703.88 2588.71,2701.4 2585.63,2698.75 2582.65,2695.91 1446.77,1560.02 1449.75,1562.86 1452.83,1565.52 1456.02,1568 1459.31,1570.29 1462.68,1572.4 1466.14,1574.32 1469.67,1576.06 1473.27,1577.62 1476.92,1579 1480.63,1580.19 1484.38,1581.2 1488.17,1582.03 1491.99,1582.67 1495.83,1583.13 1499.69,1583.41 1503.55,1583.5 1507.42,1583.41 1511.27,1583.14 1515.12,1582.68 1518.94,1582.04 1522.74,1581.22 1526.5,1580.21 1530.21,1579.02 1533.88,1577.65 1537.48,1576.09 1541.02,1574.34 1544.49,1572.42 1547.88,1570.31 1551.18,1568.01 1554.39,1565.53 1557.49,1562.87 1560.49,1560.03 1560.59,1559.92 1560.7,1559.82 1560.8,1559.72 1560.9,1559.61 1561,1559.51 1561.1,1559.4 1561.2,1559.3 "/>
     <polygon id="_261078960" class="fil1" points="1202.66,957.517 2338.55,2093.4 2334.53,2091.9 2330.8,2090.64 2327.33,2089.59 2324.12,2088.76 2321.16,2088.13 2318.44,2087.69 2315.95,2087.44 2313.68,2087.36 2311.63,2087.45 2309.78,2087.7 2308.13,2088.08 2306.66,2088.61 2305.37,2089.26 2304.24,2090.03 2303.28,2090.91 2302.46,2091.88 1166.58,956.002 1167.39,955.026 1168.36,954.148 1169.48,953.379 1170.78,952.728 1172.24,952.202 1173.9,951.813 1175.75,951.57 1177.8,951.483 1180.07,951.561 1182.56,951.812 1185.27,952.248 1188.24,952.878 1191.45,953.709 1194.91,954.753 1198.65,956.019 "/>
     <polygon id="_261079416" class="fil1" points="1166.58,956.002 2302.46,2091.88 2302.26,2092.16 2302.08,2092.45 2301.9,2092.74 2301.74,2093.03 2301.58,2093.33 2301.43,2093.64 2301.29,2093.96 2301.17,2094.27 1165.28,958.391 1165.41,958.073 1165.55,957.76 1165.7,957.452 1165.86,957.151 1166.02,956.854 1166.2,956.564 1166.38,956.28 "/>
     <polygon id="_261079344" class="fil1" points="1165.28,958.391 2301.17,2094.27 2300.73,2095.46 2300.34,2096.7 2299.98,2097.99 2299.66,2099.31 2299.37,2100.67 2299.12,2102.07 2298.9,2103.49 2298.71,2104.95 1162.83,969.066 1163.02,967.612 1163.24,966.185 1163.49,964.79 1163.78,963.428 1164.1,962.104 1164.46,960.82 1164.85,959.583 "/>
     <polygon id="_261079512" class="fil1" points="1229.81,949.781 2365.69,2085.66 2364.49,2087.15 2363.18,2088.52 2361.77,2089.77 2360.27,2090.9 2358.69,2091.9 2357.05,2092.77 2355.33,2093.51 2353.56,2094.11 2351.75,2094.57 2349.9,2094.88 2348.02,2095.04 2346.12,2095.05 2344.22,2094.9 2342.31,2094.59 2340.4,2094.12 2338.52,2093.47 1202.64,957.589 1204.52,958.234 1206.42,958.709 1208.33,959.019 1210.24,959.168 1212.14,959.16 1214.02,958.998 1215.87,958.686 1217.68,958.228 1219.45,957.629 1221.16,956.891 1222.81,956.019 1224.39,955.016 1225.89,953.887 1227.3,952.637 1228.6,951.265 "/>
     <polygon id="_261078792" class="fil1" points="1162.83,969.066 2298.71,2104.95 2298.5,2106.91 2298.34,2108.92 2298.22,2110.94 2298.14,2112.99 2298.1,2115.05 2298.08,2117.11 2298.1,2119.16 2298.15,2121.2 2298.22,2123.22 2298.3,2125.22 2298.4,2127.17 2298.51,2129.09 2298.63,2130.94 2298.76,2132.74 2298.88,2134.47 2299,2136.13 1163.12,1000.25 1163,998.592 1162.88,996.861 1162.75,995.062 1162.63,993.203 1162.52,991.291 1162.42,989.335 1162.33,987.342 1162.27,985.321 1162.22,983.279 1162.2,981.224 1162.21,979.164 1162.26,977.108 1162.34,975.061 1162.46,973.033 1162.62,971.032 "/>
    </g>
    <path id="_517154080" class="fil1" d="M1560.49 1560.02l0 0zm-27.6579 -1067.79c17.5725,16.4162 28.4055,38.8973 33.9945,66.7205 1.89567,7.28741 0.231496,15.3579 -5.15552,21.3992l-0.0200788 -0.0177165c-110.118,123.543 -220.843,246.697 -331.847,369.446 -6.10749,8.22048 -17.165,11.7036 -27.1701,7.80827l0.0283465 -0.0720473c-22.1599,-8.61969 -32.1142,-6.96497 -36.0862,-1.51536 -0.533859,0.733465 -0.960237,1.53425 -1.29331,2.38937 -1.21063,3.10984 -1.98662,6.76418 -2.45669,10.6748 -1.24961,10.3831 -0.344882,22.5709 0.295276,31.1811 0.659056,8.89016 1.18465,15.9673 -1.02874,22.2721 -4.02756,20.1012 -9.68387,40.4646 -16.8059,60.9272 32.7083,9.94017 57.1595,4.02756 131.362,78.2304l284.626 284.627c5.1815,5.1815 9.47953,10.989 12.8917,17.2134 0.022441,0.0413386 0.0448819,0.0814961 0.0673229,0.122835 7.06654,12.9449 10.3075,27.6839 9.69213,42.339 -0.811418,19.2957 -8.30906,38.4437 -22.5673,53.1556 -0.0153543,0.0236221 -0.034252,0.0437008 -0.0590552,0.0590552 -0.264567,0.281103 -0.53504,0.5563 -0.811418,0.832678 -31.3453,31.3453 -82.5851,31.2638 -113.72,-0.0011811l-281.099 -283.451c-42.7134,-42.9874 -58.1646,-70.3512 -66.2067,-92.9516 -48.5989,86.2194 -118.768,169.434 -198.197,237.21 -108.106,92.2477 -234.256,157.355 -347.807,162.332 -11.8937,0.520867 -40.5532,1.59449 -56.6752,-3.46181 -3.57992,-1.12205 -6.54213,-2.54764 -8.56418,-4.34764 -9.60473,-8.55001 -10.461,-23.2689 -1.91221,-32.8748l482.654 -541.48 -30.0792 -29.5347c-59.6682,-22.0335 -156.607,-36.763 -193.695,-34.3382 -42.0012,2.74488 -85.382,-12.4146 -126.846,-53.8796l-11.511 -12.3921 -142.832 -230.998c3.04134,1.35236 5.84882,3.3626 8.19804,6.01772l170.556 193.194c2.55945,2.90079 5.78032,6.28819 9.62953,10.1374 33.6532,34.578 75.3213,36.7087 113.575,20.6492l-249.072 -281.319 289.307 256.942c6.98623,-5.61969 13.6547,-11.7791 19.9075,-18.3567l0.259843 -0.271654 0.271654 -0.259843c7.77757,-7.39371 14.9705,-15.3673 21.3768,-23.7614l-267.564 -284.903 290.7 244.075c14.0681,-37.0134 10.8154,-76.7741 -22.428,-109.128 -3.8504,-3.84803 -7.23662,-7.07008 -10.1374,-9.62953l-199.213 -178.754 230.999 142.833c5.0563,4.46339 9.17599,8.29371 12.3921,11.5099 41.4638,41.4638 56.6245,84.8457 53.8796,126.847 -2.34921,35.9268 11.3988,128.014 32.289,187.981 1.21299,0.549213 2.51575,1.49882 3.94607,2.92914l28.4315 28.128 77.902 -87.3969 360.365 -404.287c4.47638,-5.53347 11.4213,-8.95631 19.0784,-8.64568 1.3063,1.39134 39.0343,3.07914 65.6115,21.0555 0.165354,0.106299 0.327166,0.217323 0.488977,0.328347 2.84764,1.95709 5.56182,4.10315 8.08465,6.46063z"/>
   </g>
  </g>
  <path class="fil2" d="M1024 -0.0011811c565.541,0 1024,458.461 1024,1024 0,565.541 -458.461,1024 -1024,1024 -565.541,0 -1024,-458.461 -1024,-1024 0,-565.541 458.461,-1024 1024,-1024z"/>
  <path class="fil3" d="M464 639.858c3.04134,1.35236 5.84882,3.3626 8.19922,6.01772l170.555 193.195c2.55827,2.89961 5.78032,6.28701 9.62953,10.1362 52.8993,54.3532 125.6,28.5343 173.717,-22.0843l0.259843 -0.272835 0.271654 -0.258662c50.6197,-48.1181 76.4375,-120.819 22.0855,-173.718 -3.8504,-3.84922 -7.23662,-7.07008 -10.1374,-9.62953l-199.212 -178.754 230.998 142.832c5.0563,4.46457 9.17599,8.29489 12.3921,11.511 41.4638,41.465 56.6245,84.8457 53.8796,126.847 -2.68937,41.1272 15.7169,155.855 41.7851,211.74 -3.69213,4.18229 -7.08426,7.86615 -10.1835,11.0681l-0.119291 0.122835 -0.121654 0.11811c-3.20197,3.09921 -6.88583,6.49252 -11.0681,10.1835 -55.8851,-26.0681 -170.613,-44.4744 -211.74,-41.7851 -42.0012,2.74488 -85.3831,-12.4146 -126.847,-53.8784l-11.511 -12.3933 -142.832 -230.998z"/>
  <path class="fil3" d="M516.887 588.538l266.319 300.8c9.4004,9.39922 24.6414,9.39922 34.0418,0 9.39922,-9.39922 9.39922,-24.6414 0,-34.0406l-300.36 -266.759z"/>
  <path class="fil3" d="M580.445 517.927l278.075 296.098c9.39922,9.39922 24.6414,9.39922 34.0406,0 9.4004,-9.4004 9.4004,-24.6414 0,-34.0418l-312.116 -262.056z"/>
  <path class="fil3" d="M972.872 936.589c-9.4004,-9.39922 -13.2791,1.96299 -22.6795,11.3622 -9.39922,9.4004 -20.7614,14.0634 -11.3622,23.4626l97.6205 95.8548c91.3902,91.3902 18.1784,97.552 129.22,209.306l281.099 283.451 0.0011811 0.0011811c15.6543,15.6543 36.2658,23.4827 56.8595,23.4827 20.5949,0 41.2051,-7.82835 56.8595,-23.4827l0.0011811 0 0.0011811 -0.00236221c15.6555,-15.6543 23.4839,-36.2658 23.4839,-56.8607 0,-20.5937 -7.04528,-41.2051 -22.6996,-56.8595l-284.626 -284.627c-118.708,-118.708 -110.086,-32.3752 -211.645,-133.934l-92.1331 -91.154z"/>
  <path class="fil4" d="M1080.08 1077.97l-17.8524 18.0508c51.0662,65.5028 5.33032,81.8091 103.445,180.553l281.099 283.451c31.1351,31.2638 82.376,31.3453 113.723,-0.0011811 0.274016,-0.274016 0.540945,-0.552756 0.809056,-0.830316l-481.223 -481.223z"/>
  <path class="fil5" d="M1099.32 1058.51l-18.8575 19.0677 -0.386221 0.390945 481.223 481.223 0.0590552 -0.0590552c30.3331,-31.3004 30.0685,-82.6784 -0.0838583,-112.831l-284.626 -284.627c-103.393,-103.393 -110.192,-51.2398 -177.328,-103.165z"/>
  <path class="fil6" d="M1119.75 1003.31c0.957875,-1.6252 2.10473,-3.11339 3.40158,-4.44213 3.28937,-3.77481 -3.85748,3.44882 -5.93032,4.62166l2.52874 -0.179528z"/>
  <path class="fil7" d="M901.267 1420.83c-108.106,92.2477 -234.256,157.355 -347.807,162.332 -14.5347,0.636615 -54.1087,2.09764 -65.2394,-7.80945 -9.60473,-8.55001 -10.461,-23.2689 -1.91221,-32.8748l953.263 -1069.45c4.47638,-5.53347 11.4213,-8.95631 19.0784,-8.64568 1.45512,1.54961 48.0933,3.46654 74.1851,27.8445 17.5725,16.4162 28.4055,38.8973 33.9945,66.7205 1.89567,7.28741 0.231496,15.3579 -5.15552,21.3992l-0.0200788 -0.0177165c-110.118,123.543 -220.843,246.697 -331.847,369.446 -6.10749,8.22048 -17.165,11.7036 -27.1701,7.80827l0.0283465 -0.0720473c-25.141,-9.77954 -34.5709,-6.33426 -37.3796,0.874016 -4.42559,11.3693 -3.04252,30.0036 -2.16142,41.8559 0.659056,8.89016 1.18465,15.9673 -1.02874,22.2721 -27.6614,138.033 -132.08,288.454 -260.828,398.314z"/>
  <path class="fil4" d="M1133.27 926.006l0.0543308 0.0484252 33.2551 29.9469c3.97205,-5.44961 13.9264,-7.10434 36.0862,1.51536l-0.0283465 0.0720473c10.0051,3.89528 21.0626,0.412205 27.1701,-7.80827 111.005,-122.749 221.73,-245.902 331.847,-369.446l0.0200788 0.0177165c5.38701,-6.04134 7.05119,-14.1118 5.15552,-21.3992 -5.58898,-27.8232 -16.4221,-50.3044 -33.9945,-66.7205 -2.52284,-2.35748 -5.23937,-4.50237 -8.08583,-6.45945l-0.487796 -0.329528 -390.992 440.562z"/>
  <path class="fil5" d="M1439.57 473.034l-360.365 404.287 54.0626 48.6851 390.992 -440.562c-26.5807,-17.974 -64.3052,-19.6642 -65.6115,-21.0555 -7.65709,-0.31063 -14.602,3.11221 -19.0784,8.64568z"/>
  <path class="fil8" d="M901.267 1420.83c128.747,-109.86 233.166,-260.281 260.828,-398.314 2.21339,-6.30473 1.6878,-13.3819 1.02874,-22.2721 -0.640158,-8.61024 -1.54488,-20.798 -0.295276,-31.1811 -177.675,389.42 -420.244,543.952 -666.043,610.637 16.1221,5.0563 44.7815,3.98268 56.6752,3.46181 113.55,-4.97717 239.7,-70.0843 347.807,-162.332z"/>
 </g>
</svg>
